<svg xmlns="http://www.w3.org/2000/svg" fill="none" viewBox="-0.815 -0.815 26 26" height="26" width="26" id="Multiple-Users-1--Streamline-Ultimate"><desc>Multiple Users 1 Streamline Icon: https://streamlinehq.com</desc><path stroke="#000000" stroke-linecap="round" stroke-linejoin="round" d="M2.2846875 6.092499999999999c0 0.6059397416666666 0.24070452083333332 1.1870525458333334 0.6691697375 1.6155177625 0.42846521666666665 0.42846521666666665 1.0095780208333334 0.6691697375 1.6155177625 0.6691697375 0.6059397416666666 0 1.1870525458333334 -0.24070452083333332 1.6155177625 -0.6691697375C6.613357979166667 7.279552545833333 6.8540624999999995 6.698439741666666 6.8540624999999995 6.092499999999999c0 -0.6059397416666666 -0.24070452083333332 -1.1870525458333334 -0.6691697375 -1.6155177625C5.756427545833334 4.048517020833333 5.175314741666666 3.8078125 4.569375 3.8078125c-0.6059397416666666 0 -1.1870525458333334 0.24070452083333332 -1.6155177625 0.6691697375C2.5253920208333334 4.905447454166667 2.2846875 5.486560258333333 2.2846875 6.092499999999999Z" stroke-width="1.63"></path><path stroke="#000000" stroke-linecap="round" stroke-linejoin="round" d="M4.569375 9.9003125c-1.0098928 0 -1.9784276791666666 0.401191125 -2.6925296041666664 1.1152321250000001C1.1627434708333333 11.729687166666666 0.7615624999999999 12.698191583333333 0.7615624999999999 13.708124999999999v2.2846875h1.5231249999999998l0.7615624999999999 6.092499999999999h3.0462499999999997" stroke-width="1.63"></path><path stroke="#000000" stroke-linecap="round" stroke-linejoin="round" d="M17.5159375 6.092499999999999c0 0.6059397416666666 0.24075529166666668 1.1870525458333334 0.6691595833333334 1.6155177625 0.4285058333333333 0.42846521666666665 1.0096287916666666 0.6691697375 1.6155279166666665 0.6691697375s1.1870220833333334 -0.24070452083333332 1.6155279166666665 -0.6691697375c0.42840429166666666 -0.42846521666666665 0.6691595833333334 -1.0095780208333334 0.6691595833333334 -1.6155177625 0 -0.6059397416666666 -0.24075529166666668 -1.1870525458333334 -0.6691595833333334 -1.6155177625 -0.4285058333333333 -0.42846521666666665 -1.0096287916666666 -0.6691697375 -1.6155279166666665 -0.6691697375s-1.1870220833333334 0.24070452083333332 -1.6155279166666665 0.6691697375c-0.42840429166666666 0.42846521666666665 -0.6691595833333334 1.0095780208333334 -0.6691595833333334 1.6155177625Z" stroke-width="1.63"></path><path stroke="#000000" stroke-linecap="round" stroke-linejoin="round" d="M19.800625 9.9003125c1.0099334166666667 0 1.9784378333333332 0.401191125 2.692580375 1.1152321250000001 0.714041 0.7141425416666667 1.1152321250000001 1.6826469583333332 1.1152321250000001 2.692580375v2.2846875h-1.5231249999999998l-0.7615624999999999 6.092499999999999h-3.0462499999999997" stroke-width="1.63"></path><path stroke="#000000" stroke-linecap="round" stroke-linejoin="round" d="M9.13875 3.8078125c0 0.8079162708333333 0.3209427458333333 1.5827401125 0.8922263166666666 2.154023683333333C10.602270041666666 6.533119754166667 11.377134499999999 6.8540624999999995 12.184999999999999 6.8540624999999995c0.8078654999999999 0 1.5827299583333332 -0.3209427458333333 2.1540033750000003 -0.8922263166666666C14.910276791666666 5.3905526125 15.23125 4.615728770833333 15.23125 3.8078125s-0.3209732083333333 -1.5827401125 -0.892246625 -2.154023683333333C13.767729958333334 1.0825052458333333 12.9928655 0.7615624999999999 12.184999999999999 0.7615624999999999c-0.8078654999999999 0 -1.5827299583333332 0.3209427458333333 -2.154023683333333 0.8922263166666666C9.459692745833333 2.2250723875 9.13875 2.999896229166666 9.13875 3.8078125Z" stroke-width="1.63"></path><path stroke="#000000" stroke-linecap="round" stroke-linejoin="round" d="M17.5159375 13.708124999999999c0 -1.4138661666666668 -0.5616269583333333 -2.7697520416666666 -1.5614062083333333 -3.769541445833333C14.954752041666667 8.938834766666666 13.598866166666667 8.3771875 12.184999999999999 8.3771875c-1.4138661666666668 0 -2.769792658333333 0.5616472666666666 -3.769541445833333 1.5613960541666667C7.415709766666667 10.938372958333332 6.8540624999999995 12.294258833333332 6.8540624999999995 13.708124999999999v2.2846875H9.13875l0.7615624999999999 7.615625h4.569375l0.7615624999999999 -7.615625h2.2846875V13.708124999999999Z" stroke-width="1.63"></path></svg>